<svg aria-hidden="true" style="position:absolute;width:0;height:0" xmlns="http://www.w3.org/2000/svg" overflow="hidden">
    <defs>
    <!-- IG -->
    <symbol id="instagram" viewBox="0 0 20 20">
     <path d="M19.98 5.88a7.3 7.3 0 0 0-.46-2.43 4.88 4.88 0 0 0-1.16-1.77c-.5-.5-1.1-.9-1.77-1.15a7.33 7.33 0 0 0-2.43-.47A68.25 68.25 0 0 0 10.04 0C7.32 0 6.98.01 5.92.06 4.85.1 4.12.28 3.49.52a5 5 0 0 0-1.77 1.16A5 5 0 0 0 .56 3.45 7.33 7.33 0 0 0 .1 5.88 68.25 68.25 0 0 0 .04 10c0 2.72 0 3.06.05 4.12a7.3 7.3 0 0 0 .47 2.43c.25.67.65 1.27 1.16 1.77a5 5 0 0 0 1.77 1.16c.63.24 1.36.41 2.42.46 1.07.05 1.4.06 4.12.06s3.06-.01 4.13-.06a7.3 7.3 0 0 0 2.42-.46 5.12 5.12 0 0 0 2.93-2.93c.24-.64.42-1.36.46-2.43.05-1.06.06-1.4.06-4.12 0-2.71 0-3.05-.05-4.12Zm-1.8 8.17c-.04.97-.2 1.5-.34 1.85a3.32 3.32 0 0 1-1.9 1.9c-.35.14-.89.3-1.86.34-1.05.05-1.37.06-4.04.06A70.3 70.3 0 0 1 6 18.14c-.98-.04-1.5-.2-1.85-.34A3.08 3.08 0 0 1 3 17.05a3.1 3.1 0 0 1-.75-1.14 5.5 5.5 0 0 1-.34-1.86 70.37 70.37 0 0 1-.06-4.04c0-2.67.01-2.99.06-4.04.04-.98.2-1.5.34-1.86.16-.43.41-.82.75-1.14a3.1 3.1 0 0 1 1.15-.75c.35-.14.88-.3 1.86-.34 1.05-.05 1.37-.06 4.03-.06 2.68 0 3 0 4.04.06.98.04 1.5.2 1.86.34.43.16.83.41 1.15.75.33.32.59.71.75 1.14.13.36.3.89.34 1.86.05 1.05.06 1.37.06 4.04s-.01 2.98-.06 4.04Z"/>
    <path d="M10.04 4.86a5.14 5.14 0 1 0 0 10.28 5.14 5.14 0 0 0 0-10.28Zm0 8.47a3.33 3.33 0 1 1 0-6.66 3.33 3.33 0 0 1 0 6.66Zm6.54-8.67a1.2 1.2 0 1 1-2.4 0 1.2 1.2 0 0 1 2.4 0Z"/>
    </symbol>
    <!-- Twitter -->
    <symbol id="twitter" viewBox="0 0 20 20">
    <path d="M20 3.8a8.6 8.6 0 0 1-2.36.65c.85-.51 1.5-1.3 1.8-2.27-.8.47-1.67.8-2.6 1a4.1 4.1 0 0 0-7 3.73A11.6 11.6 0 0 1 1.4 2.62 4.13 4.13 0 0 0 2.65 8.1C2 8.1 1.35 7.9.8 7.6v.04c0 2 1.42 3.65 3.29 4.03a4.09 4.09 0 0 1-1.86.07 4.14 4.14 0 0 0 3.84 2.85A8.24 8.24 0 0 1 0 16.3a11.54 11.54 0 0 0 6.29 1.84c7.55 0 11.67-6.25 11.67-11.67 0-.18 0-.36-.02-.53.82-.58 1.5-1.3 2.06-2.13Z"/>
    </symbol>
    <!-- FB -->
    <symbol id="facebook" viewBox="0 0 20 20">
     <path  d="M13.33 3.32h1.83V.14C14.84.1 13.76 0 12.5 0 9.86 0 8.06 1.66 8.06 4.7v2.8h-2.9v3.55h2.9V20h3.56v-8.94h2.79l.44-3.56h-3.23V5.05c0-1.03.28-1.73 1.71-1.73Z"/>
    </symbol>
    <!-- Linkedin -->
    <symbol id="linkedin" viewBox="0 0 20 20">
    <path d="M20 20v-7.34c0-3.58-.77-6.35-4.97-6.35a4.35 4.35 0 0 0-3.92 2.16h-.06V6.65H7.07V20h4.15v-6.61c0-1.74.33-3.43 2.48-3.43 2.13 0 2.16 1.99 2.16 3.54V20H20ZM.33 6.65h4.15V20H.33V6.65ZM2.4 0A2.4 2.4 0 0 0 0 2.4a2.42 2.42 0 0 0 2.4 2.43c1.33 0 2.4-1.1 2.4-2.43A2.4 2.4 0 0 0 2.4 0Z"/>
    </symbol>

    <!-- Contacts Icon -->

    <!-- Location -->
    <symbol id="pintag" viewBox="0 0 24 24">
    <path stroke="#9DA4BD" stroke-linecap="round" stroke-linejoin="round" d="M20 10.36C20 16.1 12 21 12 21s-8-4.9-8-10.64C4 6.3 7.58 3 12 3s8 3.3 8 7.36v0Z" clip-rule="evenodd"/>
  <path stroke="#9DA4BD" stroke-linecap="round" stroke-linejoin="round" d="M12 14a3 3 0 1 0 0-6 3 3 0 0 0 0 6Z" clip-rule="evenodd"/>
    </symbol>

    <!-- Telephone -->
    <symbol id="phone" viewBox="0 0 24 24">
    <path stroke="#9DA4BD" stroke-linecap="round" stroke-linejoin="round" d="M20 16v2.42a1.6 1.6 0 0 1-1.75 1.6 15.92 15.92 0 0 1-6.95-2.46 15.69 15.69 0 0 1-4.82-4.83A15.92 15.92 0 0 1 4 5.75 1.6 1.6 0 0 1 5.6 4h2.41c.8 0 1.5.58 1.61 1.38.1.78.3 1.53.56 2.26a1.6 1.6 0 0 1-.36 1.7L8.8 10.36a12.87 12.87 0 0 0 4.83 4.83l1.02-1.02a1.6 1.6 0 0 1 1.7-.36c.73.27 1.48.46 2.26.56.8.11 1.4.82 1.38 1.63Z" clip-rule="evenodd"/>
    </symbol>

    <!-- Email -->
    <symbol id="envelope" viewBox="0 0 24 24">
    <path stroke="#9DA4BD" stroke-linecap="round" stroke-linejoin="round" d="M4.8 5h14.4c.99 0 1.8.79 1.8 1.75v10.5c0 .96-.81 1.75-1.8 1.75H4.8c-.99 0-1.8-.79-1.8-1.75V6.75C3 5.79 3.81 5 4.8 5Z" clip-rule="evenodd"/>
  <path stroke="#9DA4BD" stroke-linecap="round" stroke-linejoin="round" d="m20 7-8 6-8-6"/>
    </symbol>

<!-- Test Icon -->
<symbol id="client-5" viewBox="0 0 104 56">
    <path d="M26.8 44.37c.24.28.37.62.36.97.01.23-.03.46-.13.67-.1.21-.25.4-.44.55-.48.33-1.07.49-1.66.45H22v-6.13h2.87c.56-.04 1.12.1 1.58.4.19.14.33.32.43.52.1.2.14.41.13.63.01.34-.1.67-.33.94-.23.24-.53.41-.88.48.4.06.74.25 1 .52Zm-3.44-.92h1.23c.27.02.55-.06.77-.2.1-.08.17-.17.21-.28.05-.1.07-.21.06-.33a.69.69 0 0 0-.06-.32.75.75 0 0 0-.2-.27 1.28 1.28 0 0 0-.8-.21h-1.2v1.6Zm2.12 2.35c.1-.08.18-.17.23-.28a.7.7 0 0 0 .06-.34.7.7 0 0 0-.06-.35.78.78 0 0 0-.23-.28 1.37 1.37 0 0 0-.83-.22h-1.29V46h1.3c.3.02.58-.06.82-.21Zm7.17 1.2-1.6-2.39h-.6v2.4h-1.37v-6.13h2.6c.65-.04 1.3.14 1.8.52a1.81 1.81 0 0 1 .2 2.53c-.32.34-.76.56-1.24.63l1.7 2.45h-1.5Zm-2.2-3.22h1.13c.78 0 1.17-.31 1.17-.93a.83.83 0 0 0-.07-.37.9.9 0 0 0-.22-.32 1.3 1.3 0 0 0-.88-.25h-1.14l.02 1.87Zm9.69 2h-2.73L36.93 47h-1.44L38 40.95h1.55l2.5 6.06h-1.43l-.48-1.23Zm-.36-.93-1-2.6-1 2.6h2ZM49.52 47h-1.36l-3.05-4.16V47h-1.36v-6.13h1.36l3.05 4.2v-4.2h1.36V47Zm7.77-1.46c-.28.46-.71.84-1.23 1.08-.6.27-1.25.4-1.91.39h-2.43v-6.13h2.43c.66-.02 1.31.11 1.9.37.53.24.96.61 1.24 1.07a3.28 3.28 0 0 1 0 3.22Zm-1.56-.15c.4-.4.6-.92.6-1.46 0-.54-.2-1.05-.6-1.46a2.54 2.54 0 0 0-1.7-.52h-.95v3.97h.95c.62.03 1.23-.16 1.7-.53ZM41 6.77s17.56 5.97 17.19 14.6V36S40.64 30.02 41 21.38V6.77Zm32.84 25.8A25.77 25.77 0 0 1 85 28.87v-4.58a22.54 22.54 0 0 0-11.16 8.28Z"/>
    <path d="M71.85 33.95A23.19 23.19 0 0 1 85 23.33V10.15s-25.02 8.5-24.49 20.81v20.8s1.12-.37 2.87-1.09c0-.66 0-1.33.08-2a20.97 20.97 0 0 1 8.39-14.72Z"/>
    <path d="M69.47 41.68c.13-1.45.42-2.87.87-4.26a19.1 19.1 0 0 0-5.3 12.56 75.86 75.86 0 0 0 4.82-2.28 19.43 19.43 0 0 1-.4-6.02Zm.99.07c-.17 1.82-.06 3.66.31 5.46C77.61 43.53 85.3 37.84 85 30.96v-.6c-4.88.5-9.45 2.42-13 5.47a18.82 18.82 0 0 0-1.53 5.92Z"/>
 </symbol>

    <!-- Modal Close Icon -->
    <symbol id="icon-close" viewBox="0 0 8 8">
    <path fill="#2E2F42" d="M8 .8 7.2 0 4 3.2.8 0 0 .8 3.2 4 0 7.2l.8.8L4 4.8 7.2 8l.8-.8L4.8 4 8 .8Z"/>
    </symbol>

  <!-- Modal Form Icons -->
<symbol id="person-black" viewBox="0 0 32 32">
  <path d="M9 9a3 3 0 1 0 0-6 3 3 0 0 0 0 6Zm0 1.5c-2 0-6 1-6 3v.75c0 .41.34.75.75.75h10.5c.41 0 .75-.34.75-.75v-.75c0-2-4-3-6-3Z"/>
  </symbol>

 <symbol id="telephone" viewBox="0 0 32 32"> 
<path d="m14.73 13.87-1.84-.21c-.44-.06-.88.1-1.19.4l-1.33 1.34a10.89 10.89 0 0 1-4.77-4.77l1.34-1.34c.31-.31.46-.74.41-1.19l-.2-1.82A1.45 1.45 0 0 0 5.7 5H4.45c-.82 0-1.5.68-1.45 1.5A12.3 12.3 0 0 0 14.5 18c.82.05 1.5-.63 1.5-1.45V15.3c0-.73-.54-1.35-1.27-1.43Z"/>
 </symbol>


<symbol id="mail" viewBox="0 0 32 32"> 
<path d="M15 6H3c-.83 0-1.5.67-1.5 1.5v9c0 .82.67 1.5 1.5 1.5h12c.82 0 1.5-.68 1.5-1.5v-9c0-.83-.68-1.5-1.5-1.5Zm-.3 3.19L9.4 12.5a.76.76 0 0 1-.8 0L3.3 9.2a.64.64 0 1 1 .68-1.08L9 11.25l5.03-3.14a.64.64 0 1 1 .67 1.08Z"/>
 </symbol>

 <!-- Custom Checkbox Icon -->
<!-- <symbol id="square" viewBox="0 0 16 16">
  <rect width="15" height="15" x=".5" y=".5" stroke="#2E2F42" stroke-opacity=".4" rx="1.5"/>
</symbol> -->

<symbol id="checkbox" viewBox="0 0 16 16">
<path d="M11.4456 4.25506C11.6184 4.08965 11.8483 3.99821 12.0869 4.00003C12.3255 4.00184 12.5541 4.09677 12.7244 4.26478C12.8947 4.4328 12.9934 4.66075 12.9997 4.90055C13.006 5.14034 12.9194 5.37323 12.7582 5.55005L7.86357 11.7044C7.7794 11.7955 7.67782 11.8686 7.5649 11.9194C7.45198 11.9702 7.33003 11.9975 7.20636 11.9998C7.08268 12.0021 6.95981 11.9793 6.8451 11.9328C6.73038 11.8863 6.62618 11.817 6.53872 11.729L3.29283 8.46564C3.20243 8.38096 3.12993 8.27884 3.07965 8.16537C3.02936 8.05191 3.00232 7.92942 3.00014 7.80522C2.99796 7.68102 3.02069 7.55765 3.06696 7.44248C3.11323 7.3273 3.18211 7.22267 3.26947 7.13483C3.35684 7.047 3.4609 6.97775 3.57547 6.93123C3.69003 6.88471 3.81273 6.86186 3.93627 6.86405C4.0598 6.86624 4.18163 6.89343 4.29449 6.94398C4.40734 6.99454 4.50892 7.06743 4.59315 7.15831L7.16189 9.73967L11.4223 4.28219C11.4299 4.27269 11.4381 4.26364 11.4468 4.25506H11.4456Z" />
</symbol>


</defs>
</svg>